<svg id="f960afc8-10b0-4d0f-9bd9-81da44de8177" data-name="Capa 1" xmlns="http://www.w3.org/2000/svg" viewBox="0 0 1907.8 1761.7">
  <g>
    <path d="M673.7,1457.5c-23.2,168.2,94.3,331.8,260.9,363.6,190.2,41.7,384.9-107.5,392.6-302.7C1347,1101.6,731.2,1044.4,673.7,1457.5Zm90.2,41.6c1.2-283.3,416-320.1,467.3-41.6C1281.2,1790.8,773.7,1836,763.9,1499.1Z" transform="translate(-46.1 -128.5)" fill="none"/>
    <path d="M999.4,1323.3c-232.7,7.5-232.1,344.5,0,351.6C1231.5,1667.8,1232.2,1330.8,999.4,1323.3Z" transform="translate(-46.1 -128.5)" fill="none"/>
    <path d="M1826.7,189.4H173.3a68.8,68.8,0,0,0-68.8,68.8V1388.6a68.9,68.9,0,0,0,68.8,68.9H611c44.5-456.5,732.2-457,776.8,0h438.9a68.9,68.9,0,0,0,68.8-68.9V258.2A68.8,68.8,0,0,0,1826.7,189.4ZM619.2,494.7h761.6c22.8.4,17.3,28,17.8,43.1a17.8,17.8,0,0,1-17.8,17.8H619.2a17.8,17.8,0,0,1-17.8-17.8C602.1,522.9,596.2,495,619.2,494.7ZM312.3,1381.1a7.5,7.5,0,0,1-7.5,7.5H188.4a11.5,11.5,0,0,1-11.6-11.6V1260.6a7.5,7.5,0,0,1,7.5-7.6h36.2a7.6,7.6,0,0,1,7.6,7.6V1328a9.2,9.2,0,0,0,9.3,9.3C320.3,1341.1,312.7,1319.6,312.3,1381.1ZM237.4,309.5a9.3,9.3,0,0,0-9.3,9.3v67.5a7.6,7.6,0,0,1-7.6,7.5H184.3a7.5,7.5,0,0,1-7.5-7.5V269.8a11.5,11.5,0,0,1,11.6-11.6H304.8a7.5,7.5,0,0,1,7.5,7.6C312.7,327.2,320.3,305.8,237.4,309.5ZM1613.1,695.4a22.1,22.1,0,0,1-22.1,22.1H409a22.1,22.1,0,0,1-22.1-22.1V678.6A22.1,22.1,0,0,1,409,656.5H1591C1613.2,657.7,1614.2,677.3,1613.1,695.4ZM1824.4,1377a11.6,11.6,0,0,1-11.6,11.6H1696.4a7.6,7.6,0,0,1-7.6-7.5v-36.3a7.6,7.6,0,0,1,7.6-7.5h67.4a9.3,9.3,0,0,0,9.3-9.3c3.7-82.9-17.7-75.3,43.8-75a7.6,7.6,0,0,1,7.5,7.6Zm0-990.7a7.6,7.6,0,0,1-7.5,7.5c-61.5.4-40.1,8-43.8-75a9.3,9.3,0,0,0-9.3-9.3h-67.4a7.5,7.5,0,0,1-7.6-7.5V265.8a7.6,7.6,0,0,1,7.6-7.6h116.4a11.6,11.6,0,0,1,11.6,11.6Z" transform="translate(-46.1 -128.5)" fill="none"/>
    <path d="M1858.7,128.5H141.3a95.2,95.2,0,0,0-95.2,95.2V1423.2a95.2,95.2,0,0,0,95.2,95.2h468c7.5,222,216.6,398.6,437.8,368.4,188.6-22.8,333.7-180.1,342.4-368.4h469.2a95.2,95.2,0,0,0,95.2-95.2V223.7A95.2,95.2,0,0,0,1858.7,128.5ZM1327.2,1518.4c-7.7,195.2-202.4,344.4-392.6,302.7-166.6-31.8-284.1-195.4-260.9-363.6C731.2,1044.4,1347,1101.6,1327.2,1518.4Zm568.3-129.8a68.9,68.9,0,0,1-68.8,68.9H1387.8c-44.6-457-732.3-456.5-776.8,0H173.3a68.9,68.9,0,0,1-68.8-68.9V258.2a68.8,68.8,0,0,1,68.8-68.8H1826.7a68.8,68.8,0,0,1,68.8,68.8Z" transform="translate(-46.1 -128.5)"/>
    <path d="M304.8,258.2H188.4a11.5,11.5,0,0,0-11.6,11.6V386.3a7.5,7.5,0,0,0,7.5,7.5h36.2a7.6,7.6,0,0,0,7.6-7.5V318.8a9.3,9.3,0,0,1,9.3-9.3c82.9-3.7,75.3,17.7,74.9-43.7A7.5,7.5,0,0,0,304.8,258.2Z" transform="translate(-46.1 -128.5)"/>
    <path d="M1812.8,258.2H1696.4a7.6,7.6,0,0,0-7.6,7.6V302a7.5,7.5,0,0,0,7.6,7.5h67.4a9.3,9.3,0,0,1,9.3,9.3c3.7,83-17.7,75.4,43.8,75a7.6,7.6,0,0,0,7.5-7.5V269.8A11.6,11.6,0,0,0,1812.8,258.2Z" transform="translate(-46.1 -128.5)"/>
    <path d="M237.4,1337.3a9.2,9.2,0,0,1-9.3-9.3v-67.4a7.6,7.6,0,0,0-7.6-7.6H184.3a7.5,7.5,0,0,0-7.5,7.6V1377a11.5,11.5,0,0,0,11.6,11.6H304.8a7.5,7.5,0,0,0,7.5-7.5C312.7,1319.6,320.3,1341.1,237.4,1337.3Z" transform="translate(-46.1 -128.5)"/>
    <path d="M1816.9,1253c-61.5-.3-40.1-7.9-43.8,75a9.3,9.3,0,0,1-9.3,9.3h-67.4a7.6,7.6,0,0,0-7.6,7.5v36.3a7.6,7.6,0,0,0,7.6,7.5h116.4a11.6,11.6,0,0,0,11.6-11.6V1260.6A7.6,7.6,0,0,0,1816.9,1253Z" transform="translate(-46.1 -128.5)"/>
    <path d="M1591,656.5H409a22.1,22.1,0,0,0-22.1,22.1v16.8A22.1,22.1,0,0,0,409,717.5H1591a22.1,22.1,0,0,0,22.1-22.1C1614.2,677.3,1613.2,657.7,1591,656.5Z" transform="translate(-46.1 -128.5)"/>
    <path d="M601.4,537.8a17.8,17.8,0,0,0,17.8,17.8h761.6a17.8,17.8,0,0,0,17.8-17.8c-.5-15.1,5-42.7-17.8-43.1H619.2C596.2,495,602.1,522.9,601.4,537.8Z" transform="translate(-46.1 -128.5)"/>
    <path d="M763.9,1499.1c9.8,336.9,517.3,291.7,467.3-41.6C1179.9,1179,765.1,1215.8,763.9,1499.1Zm235.5,175.8c-232.1-7.1-232.7-344.1,0-351.6C1232.2,1330.8,1231.5,1667.8,999.4,1674.9Z" transform="translate(-46.1 -128.5)"/>
  </g>
</svg>
