<?xml version="1.0" encoding="utf-8"?>
<!-- Generator: Adobe Illustrator 25.2.1, SVG Export Plug-In . SVG Version: 6.00 Build 0)  -->
<svg version="1.1" id="Layer_1" xmlns="http://www.w3.org/2000/svg" xmlns:xlink="http://www.w3.org/1999/xlink" x="0px" y="0px"
	 viewBox="0 0 50 50" style="enable-background:new 0 0 50 50;" xml:space="preserve">
<g>
	<path d="M25,11.56L25,11.56c1.53,0,3-0.61,4.08-1.69c1.08-1.08,1.69-2.55,1.69-4.08s-0.61-3-1.69-4.08C28,0.61,26.53,0.01,25,0.01
		s-3,0.61-4.08,1.69c-1.08,1.08-1.69,2.55-1.69,4.08c0,1.53,0.61,3,1.69,4.08C22,10.95,23.46,11.55,25,11.56z M22.71,3.49
		c0.61-0.61,1.43-0.95,2.29-0.95c0.86,0,1.68,0.34,2.29,0.95c0.61,0.61,0.95,1.43,0.95,2.29c0,0.86-0.34,1.68-0.95,2.29
		C26.68,8.68,25.85,9.02,25,9.02s-1.68-0.34-2.29-0.95c-0.61-0.61-0.95-1.43-0.95-2.29C21.76,4.92,22.1,4.1,22.71,3.49z"/>
	<path d="M15.21,18.49L15.21,18.49l0,0.05l1.17,7.65h0c0.17,1.48,1.04,2.78,2.33,3.52l1.87,12.76c0.08,0.69,0.42,1.32,0.93,1.78
		c0.52,0.46,1.19,0.71,1.88,0.71h3.2c0.69,0,1.36-0.25,1.88-0.71c0.52-0.46,0.85-1.09,0.93-1.78l1.87-12.76h0
		c1.29-0.73,2.16-2.04,2.33-3.52l1.17-7.65v-0.05c0.17-1.5-0.31-3-1.31-4.12c-1-1.12-2.44-1.77-3.94-1.77h-1.46
		c-0.45,0-0.87,0.2-1.14,0.55l-1.92,2.37l-1.89-2.36c-0.28-0.36-0.71-0.56-1.17-0.56h-1.48c-1.51,0.01-2.94,0.65-3.94,1.78
		C15.52,15.49,15.04,16.99,15.21,18.49z M18.41,16.05L18.41,16.05L18.41,16.05c0.52-0.59,1.26-0.92,2.04-0.92h0.97l2.14,2.68
		c0.33,0.42,0.84,0.67,1.38,0.66h0.07c0.53,0,1.04-0.24,1.37-0.66l2.18-2.68h0.96c0.78,0,1.53,0.33,2.06,0.92
		c0.52,0.58,0.77,1.36,0.69,2.14l-1.16,7.65v0.05c-0.04,0.4-0.2,0.78-0.45,1.09c-0.25,0.31-0.58,0.55-0.96,0.69
		c-0.44,0.16-0.75,0.56-0.82,1.02l-2.01,13.4v0.04c-0.02,0.15-0.14,0.27-0.3,0.27h-3.2c-0.15,0-0.28-0.11-0.3-0.27V42.1l-1.97-13.43
		c-0.06-0.46-0.38-0.86-0.82-1.02c-0.38-0.14-0.71-0.37-0.96-0.69c-0.25-0.31-0.4-0.69-0.45-1.09v-0.05l-1.17-7.65v0
		C17.65,17.4,17.9,16.63,18.41,16.05z"/>
	<path d="M33.49,38.31L33.49,38.31c-0.69-0.14-1.36,0.3-1.5,0.99c-0.14,0.69,0.3,1.36,0.99,1.5c4.72,0.95,6.25,2.4,6.25,2.95
		c0,0.45-0.97,1.44-3.66,2.3c-3.43,0.98-7,1.45-10.57,1.39c-3.58,0.06-7.14-0.41-10.58-1.39c-2.68-0.86-3.66-1.84-3.66-2.3
		c0-0.56,1.53-2.01,6.25-2.95h0c0.69-0.14,1.13-0.81,0.99-1.5c-0.14-0.69-0.81-1.13-1.5-0.99c-5.33,1.08-8.28,3.01-8.28,5.44
		c0,1.36,0.94,3.28,5.42,4.71v0c3.69,1.07,7.51,1.58,11.35,1.53c3.84,0.05,7.67-0.46,11.35-1.53c4.46-1.43,5.42-3.35,5.42-4.71l0,0
		C41.77,41.32,38.83,39.39,33.49,38.31z"/>
	<path d="M39.2,10.3L39.2,10.3c1.37,0,2.68-0.54,3.64-1.5c0.97-0.96,1.51-2.27,1.51-3.64c0-1.37-0.54-2.68-1.51-3.64
		C41.88,0.54,40.57,0,39.21,0c-1.37,0-2.68,0.54-3.64,1.51c-0.97,0.97-1.51,2.28-1.51,3.64c0,1.36,0.54,2.67,1.51,3.64
		C36.53,9.75,37.84,10.29,39.2,10.3z M37.36,3.31c0.49-0.49,1.15-0.76,1.84-0.76v0c0.69,0,1.36,0.27,1.84,0.76
		c0.49,0.49,0.76,1.15,0.76,1.84s-0.27,1.36-0.76,1.84c-0.49,0.49-1.15,0.76-1.84,0.76c-0.69,0-1.35-0.27-1.84-0.76
		c-0.49-0.49-0.76-1.15-0.76-1.84C36.59,4.46,36.87,3.8,37.36,3.31z"/>
	<path d="M46.63,13.15c-0.9-1-2.19-1.58-3.53-1.57l-1.26,0c-0.44,0-0.85,0.2-1.12,0.54l-1.49,1.87l-1.49-1.87h0
		c-0.44-0.56-1.24-0.65-1.8-0.21c-0.56,0.44-0.65,1.24-0.21,1.8l2.12,2.65l0,0c0.33,0.4,0.83,0.64,1.35,0.64
		c0.52,0,1.02-0.23,1.35-0.64l1.81-2.23h0.74c0.62,0,1.22,0.26,1.63,0.73c0.42,0.46,0.62,1.08,0.56,1.7l-1.02,6.58v0.05l0,0
		c-0.03,0.31-0.16,0.6-0.35,0.85c-0.19,0.24-0.45,0.43-0.74,0.54c-0.44,0.16-0.76,0.55-0.82,1.02l-1.68,12.04
		c-0.1,0.69,0.39,1.34,1.08,1.43h0.18c0.63,0,1.17-0.47,1.25-1.09l1.6-11.37c1.12-0.67,1.86-1.82,2.01-3.12l1.02-6.59v-0.05
		C47.96,15.49,47.53,14.15,46.63,13.15z"/>
	<path d="M10.79,10.3L10.79,10.3c1.37,0,2.67-0.54,3.64-1.51c0.97-0.97,1.51-2.28,1.51-3.64c0-1.37-0.54-2.67-1.51-3.64
		C13.46,0.54,12.15,0,10.79,0C9.42,0,8.11,0.54,7.15,1.51C6.18,2.47,5.64,3.78,5.64,5.15c0,1.36,0.54,2.67,1.51,3.64
		C8.12,9.75,9.42,10.3,10.79,10.3z M8.93,3.3c0.49-0.49,1.16-0.76,1.86-0.76l0,0v0c0.69,0.01,1.35,0.29,1.83,0.78
		c0.48,0.49,0.75,1.16,0.75,1.85c0,0.69-0.28,1.35-0.77,1.84c-0.49,0.49-1.15,0.76-1.84,0.75c-0.69,0-1.35-0.28-1.84-0.77
		C8.43,6.5,8.16,5.84,8.16,5.15C8.16,4.45,8.44,3.79,8.93,3.3z"/>
	<path d="M9.33,37.6L7.65,25.57c-0.06-0.47-0.38-0.86-0.82-1.02c-0.29-0.11-0.55-0.29-0.74-0.54c-0.19-0.24-0.31-0.54-0.35-0.85
		v-0.05l-1.02-6.58l0,0c-0.06-0.62,0.14-1.24,0.56-1.7c0.42-0.46,1.01-0.73,1.63-0.73h0.74l1.79,2.23c0.32,0.4,0.81,0.64,1.32,0.64
		h0.03c0.52,0.01,1.03-0.22,1.35-0.63l2.14-2.65c0.39-0.55,0.29-1.31-0.24-1.73c-0.53-0.42-1.29-0.36-1.74,0.14l-1.49,1.87
		l-1.49-1.86h0c-0.28-0.36-0.71-0.56-1.16-0.55H6.88c-1.34,0-2.62,0.58-3.52,1.58c-0.89,1-1.32,2.34-1.17,3.67L2.2,16.9l1.01,6.57
		c0.15,1.29,0.89,2.44,2.01,3.11l1.6,11.37c0.09,0.63,0.62,1.09,1.25,1.09h0.18C8.94,38.94,9.43,38.3,9.33,37.6z"/>
</g>
</svg>
