<?xml version="1.0" encoding="utf-8"?>
<!-- Generator: Adobe Illustrator 25.2.1, SVG Export Plug-In . SVG Version: 6.00 Build 0)  -->
<svg version="1.1" id="Layer_1" xmlns="http://www.w3.org/2000/svg" xmlns:xlink="http://www.w3.org/1999/xlink" x="0px" y="0px"
	 viewBox="0 0 50 50" style="enable-background:new 0 0 50 50;" xml:space="preserve">
<g>
	<path d="M12.07,25.32l12.17,18.15c0.21,0.3,0.55,0.49,0.92,0.49c0.37,0,0.71-0.18,0.92-0.49l12.19-18.15
		c1.63-2.4,2.59-5.19,2.78-8.08s-0.39-5.78-1.68-8.38h0c-1.18-2.5-3-4.63-5.28-6.19c-2.28-1.55-4.94-2.47-7.69-2.64
		c-0.82-0.06-1.63-0.06-2.45,0c-2.76,0.18-5.41,1.09-7.69,2.64c-2.28,1.55-4.11,3.69-5.28,6.19c-1.29,2.59-1.87,5.48-1.68,8.38
		C9.48,20.14,10.44,22.93,12.07,25.32z M19.51,9.51c1.49-1.5,3.51-2.34,5.62-2.35c2.11-0.01,4.14,0.82,5.64,2.31
		c1.5,1.49,2.35,3.51,2.36,5.62c0.01,2.12-0.83,4.16-2.32,5.66c-1.49,1.5-3.53,2.35-5.65,2.35v0c-2.11,0-4.13-0.84-5.63-2.33
		c-1.49-1.49-2.34-3.51-2.34-5.62C17.19,13.03,18.02,11.01,19.51,9.51z"/>
	<path d="M43.03,41.09c-0.61-0.75-1.45-1.29-2.39-1.52v0h-0.13l-5.39-0.97c-0.61-0.11-1.19,0.3-1.3,0.91
		c-0.11,0.61,0.3,1.19,0.91,1.3l5.31,0.96c0.47,0.1,0.9,0.35,1.22,0.71c0.32,0.36,0.51,0.82,0.54,1.3c-0.06,0.5-0.27,0.96-0.62,1.33
		c-0.35,0.36-0.8,0.6-1.3,0.67c-9.64,2.61-19.79,2.64-29.44,0.09v0l-0.24-0.07c-1.42-0.37-1.94-1.29-1.94-2.02
		c0.05-0.46,0.25-0.89,0.56-1.24c0.31-0.34,0.73-0.58,1.18-0.67h0l5.58-0.96c0.61-0.1,1.02-0.68,0.92-1.29
		c-0.1-0.61-0.68-1.02-1.29-0.92l-5.66,0.97H9.42c-1.31,0.25-2.43,1.11-3.01,2.31c-0.58,1.21-0.55,2.61,0.07,3.8
		c0.62,1.18,1.77,2,3.1,2.2l0.33,0.07c4.93,1.3,10.02,1.96,15.12,1.95l0,0c5.22,0.01,10.41-0.68,15.45-2.05
		c0.98-0.2,1.86-0.72,2.5-1.49c0.64-0.76,1.01-1.72,1.03-2.72C43.98,42.77,43.64,41.84,43.03,41.09z"/>
</g>
</svg>
