<?xml version="1.0" encoding="utf-8"?>
<!-- Generator: Adobe Illustrator 25.2.1, SVG Export Plug-In . SVG Version: 6.00 Build 0)  -->
<svg version="1.1" id="Layer_1" xmlns="http://www.w3.org/2000/svg" xmlns:xlink="http://www.w3.org/1999/xlink" x="0px" y="0px"
	 viewBox="0 0 50 50" style="enable-background:new 0 0 50 50;" xml:space="preserve">
<g>
	<path d="M0,39.71V10.3c0-0.61,0.38-1.16,0.95-1.38l23.53-8.82c0.37-0.14,0.74-0.12,1.07,0.01l23.49,8.81
		C49.62,9.13,50,9.68,50,10.3v29.41c0,0.67-0.43,1.2-1,1.39l-23.49,8.81c-0.33,0.12-0.7,0.12-1.03,0L1,41.1
		C0.43,40.9,0,40.37,0,39.71L0,39.71z M41.18,35.38l5.88,2.21V18.67l-20.59-7.72v18.92l4.41,1.65V18.2c0-1.03,1.03-1.74,1.99-1.38
		l7.35,2.76c0.57,0.22,0.95,0.76,0.95,1.38L41.18,35.38z M33.82,20.32v12.3l4.41,1.65v-12.3L33.82,20.32z M5.66,39.71L25,46.96
		l19.34-7.25L25,32.45L5.66,39.71z M23.53,10.95L2.94,18.67v18.92l20.59-7.72V10.95z M26.47,7.81l20.59,7.72v-4.21L26.47,3.59V7.81z
		 M2.94,15.53l20.59-7.72V3.59L2.94,11.31V15.53z M5.88,30.15V22.8c0-0.61,0.38-1.16,0.95-1.38l11.76-4.41
		c0.96-0.36,1.99,0.35,1.99,1.38v7.35c0,0.61-0.38,1.16-0.95,1.38L7.87,31.53C6.91,31.89,5.88,31.17,5.88,30.15L5.88,30.15z
		 M17.65,24.72v-4.21l-8.82,3.31v4.21L17.65,24.72z"/>
</g>
</svg>
