<?xml version="1.0" encoding="utf-8"?>
<!-- Generator: Adobe Illustrator 25.2.1, SVG Export Plug-In . SVG Version: 6.00 Build 0)  -->
<svg version="1.1" id="Layer_1" xmlns="http://www.w3.org/2000/svg" xmlns:xlink="http://www.w3.org/1999/xlink" x="0px" y="0px"
	 viewBox="0 0 50 50" style="enable-background:new 0 0 50 50;" xml:space="preserve">
<g>
	<path d="M15.79,17.2c-0.03-5.32,4.09-9.75,9.14-9.82c5.01-0.07,9.26,4.43,9.28,9.83c0.02,5.4-4.17,9.91-9.22,9.91
		C19.97,27.11,15.83,22.65,15.79,17.2z"/>
	<path d="M49.66,25C49.66,11.38,38.62,0.34,25,0.34C11.38,0.34,0.34,11.38,0.34,25c0,13.62,11.04,24.66,24.66,24.66
		C38.62,49.66,49.66,38.62,49.66,25z M6.67,36.75C1.68,30.03,1.29,17.75,9.47,9.55c8.12-8.13,20.74-8.63,29.74-1.17
		c8.32,6.9,10.2,19.55,4.2,28.36C31.09,27.7,18.89,27.62,6.67,36.75z"/>
</g>
</svg>
