<svg  viewBox="0 0 8063 2821" fill="none" xmlns="http://www.w3.org/2000/svg">
<path d="M757.69 1055.07L1324.4 669.52L1308.15 1250.16L757.69 1055.07Z" fill="#4865AA"/>
<path d="M1324.43 669.52L1833.08 1073.65L1308.17 1250.16L1324.43 669.52Z" fill="#7995C1"/>
<path d="M757.69 1055.02L959.757 1728.56L1308.15 1250.11L757.69 1055.02Z" fill="#7995C1"/>
<path d="M1308.17 1250.13L1833.08 1073.61L1649.59 1698.39L1308.17 1250.13Z" fill="#7D6840"/>
<path d="M959.783 1728.62L1308.17 1250.16L1649.6 1698.42L959.783 1728.62Z" fill="#4C629D"/>
<path d="M757.69 1055.07L764.658 483.711L1324.4 669.517L757.69 1055.07Z" fill="#596BAD"/>
<path d="M1338.35 260.711L1324.41 669.485L1849.32 427.937L1338.35 260.711Z" fill="#4865AA"/>
<path d="M1324.41 669.466L1849.32 427.918L1833.06 1073.6L1324.41 669.466Z" fill="#698DC7"/>
<path d="M1849.33 427.918L2211.65 941.208L1833.07 1073.6L1849.33 427.918Z" fill="#B6BCD8"/>
<path d="M1833.07 1073.63L2211.65 941.242L2193.07 1540.47L1833.07 1073.63Z" fill="#5372AC"/>
<path d="M1833.05 1073.61L2193.05 1538.13C2193.05 1538.13 1644.92 1703.03 1649.56 1696.06C1654.21 1693.74 1833.05 1073.61 1833.05 1073.61Z" fill="#4865AA"/>
<path d="M764.659 483.711L757.691 1055.07L386.075 959.84L764.659 483.711Z" fill="#4865AA"/>
<path d="M386.075 959.84L434.85 1554.42L757.691 1055.07L386.075 959.84Z" fill="#5372AC"/>
<path d="M757.682 1055.02L959.748 1728.56L434.841 1554.37L757.682 1055.02Z" fill="#B6BCD8"/>
<path d="M959.783 1728.56L437.198 1554.37C437.198 1554.37 767.007 2046.76 769.33 2042.11C771.652 2037.47 959.783 1728.56 959.783 1728.56Z" fill="#698DC7"/>
<path d="M766.99 2042.11L959.766 1728.56L1294.22 2181.47L766.99 2042.11Z" fill="#4865AA"/>
<path d="M959.783 1728.63L1649.6 1698.44L1294.24 2181.53L959.783 1728.63Z" fill="#6590CA"/>
<path d="M1294.2 2181.53C1301.17 2174.57 1649.56 1698.44 1649.56 1698.44L1886.46 2060.76L1294.2 2181.53Z" fill="#99AED8"/>
<path d="M1649.58 1698.42C1670.48 1696.1 2193.07 1540.48 2193.07 1540.48L1884.16 2060.74L1649.58 1698.42Z" fill="#596BAD"/>
<path d="M1849.31 427.953L1700.67 0.597656L1338.34 260.727L1849.31 427.953Z" fill="#99AED8"/>
<path d="M2211.64 941.241C2211.64 924.983 2334.74 483.693 2334.74 483.693L1849.31 430.273L2211.64 941.241Z" fill="#A9BCCA"/>
<path d="M2193.07 1540.47L2606.5 1240.86L2211.66 941.242L2193.07 1540.47Z" fill="#607CAC"/>
<path d="M1884.15 2060.74L2397.45 2018.94L2193.06 1540.48L1884.15 2060.74Z" fill="#6680BD"/>
<path d="M1294.2 2181.49L1719.24 2499.68L1884.14 2060.71L1294.2 2181.49Z" fill="#425FA5"/>
<path d="M766.99 2042.11L917.959 2508.95L1294.22 2181.46L766.99 2042.11Z" fill="#99AED8"/>
<path d="M434.875 1554.37L263.003 2063.02L767.007 2042.11L434.875 1554.37Z" fill="#A9BCCA"/>
<path d="M386.084 959.84L0.532227 1296.61L434.858 1554.42L386.084 959.84Z" fill="#607CAC"/>
<path d="M764.65 483.711L249.033 513.904L386.067 959.84L764.65 483.711Z" fill="#6680BD"/>
<path d="M249.033 513.922L883.103 37.793L764.65 483.728L249.033 513.922Z" fill="#6076AC"/>
<path d="M1338.34 260.727L1700.66 0.597656C1700.66 0.597656 887.755 40.0815 883.11 37.7589C878.465 35.4364 1338.34 260.727 1338.34 260.727Z" fill="#D7BD99"/>
<path d="M1700.66 0.597656L1849.3 427.953L2334.73 481.372L1700.66 0.597656Z" fill="#4865AA"/>
<path d="M2334.73 481.355L2211.63 941.226L2606.47 1240.84L2334.73 481.355Z" fill="#7B7B7B"/>
<path d="M2193.07 1540.43L2606.5 1240.82L2397.46 2018.88L2193.07 1540.43Z" fill="#6590CA"/>
<path d="M1884.16 2060.69L2397.45 2018.89L1719.26 2499.66L1884.16 2060.69Z" fill="#6076AC"/>
<path d="M249.05 513.922L386.084 959.857L0.532227 1296.63L249.05 513.922Z" fill="#7B7B7B"/>
<path d="M0.532227 1296.63C2.85483 1294.31 437.181 1552.11 437.181 1552.11L262.986 2063.08L0.532227 1296.63Z" fill="#A58D54"/>
<path d="M263.003 2063.01L767.007 2042.11L917.976 2508.95L263.003 2063.01Z" fill="#4865AA"/>
<path d="M1294.22 2181.48C1298.87 2179.15 1719.26 2497.35 1719.26 2497.35L917.959 2506.64L1294.22 2181.48Z" fill="#D7BD99"/>
<path d="M764.676 483.728L883.128 37.793L1338.36 260.761L764.676 483.728Z" fill="#425FA5"/>
<path d="M764.676 483.679L1338.36 260.711L1324.42 669.485L764.676 483.679Z" fill="#6590CA"/>
<path d="M4160.31 1605.54V1923.73C4148.69 1916.76 4137.08 1909.79 4125.47 1905.15C4065.08 1879.6 4000.05 1867.99 3928.05 1867.99C3858.37 1867.99 3793.34 1879.6 3732.95 1905.15C3672.56 1930.7 3621.46 1963.21 3577.33 2005.02C3533.21 2046.83 3498.37 2097.92 3475.14 2155.99C3449.59 2214.05 3437.98 2274.44 3437.98 2341.79V2344.12C3437.98 2409.15 3449.59 2471.86 3475.14 2529.92C3500.69 2587.99 3535.53 2636.76 3579.66 2680.89C3623.79 2725.02 3677.21 2757.53 3735.27 2783.08C3795.66 2808.63 3860.69 2820.24 3932.69 2820.24C4002.37 2820.24 4067.4 2808.63 4127.79 2783.08C4139.4 2778.44 4151.02 2771.47 4162.63 2764.5V2799.34H4425.08V2348.76V2346.44V1605.54H4160.31ZM4148.69 2439.34C4137.08 2469.54 4120.82 2495.08 4099.92 2518.31C4079.02 2541.53 4053.47 2560.12 4023.27 2574.05C3995.4 2587.99 3960.56 2594.95 3925.72 2594.95C3888.56 2594.95 3856.05 2587.99 3825.85 2576.37C3797.98 2562.44 3772.43 2546.18 3751.53 2522.95C3730.63 2499.73 3714.37 2474.18 3705.08 2443.99C3693.46 2413.79 3688.82 2381.28 3688.82 2348.76V2346.44C3688.82 2311.6 3693.46 2281.41 3705.08 2251.21C3716.69 2221.02 3732.95 2195.47 3753.85 2172.24C3774.76 2149.02 3800.3 2130.44 3830.5 2116.5C3860.69 2102.57 3893.21 2095.6 3928.05 2095.6C3965.21 2095.6 3997.73 2102.57 4027.92 2114.18C4055.79 2128.12 4081.34 2144.37 4102.24 2167.6C4123.15 2190.83 4139.4 2216.37 4148.69 2246.57C4153.34 2258.18 4155.66 2269.79 4157.98 2281.41V2404.5C4155.66 2416.12 4153.34 2427.73 4148.69 2439.34Z" fill="#4865AA"/>
<path d="M5015.04 2817.91C4945.36 2817.91 4880.33 2806.29 4819.94 2780.75C4759.56 2757.52 4708.46 2722.68 4664.33 2680.87C4620.2 2639.07 4585.36 2587.97 4562.13 2529.91C4536.59 2471.84 4524.97 2411.45 4524.97 2344.1V2341.78C4524.97 2276.75 4536.59 2214.04 4562.13 2155.97C4587.68 2097.91 4622.52 2049.13 4666.65 2005C4710.78 1960.87 4764.2 1928.36 4822.27 1902.81C4882.65 1877.26 4947.69 1865.65 5019.69 1865.65C5089.36 1865.65 5154.4 1877.26 5214.78 1902.81C5275.17 1928.36 5326.27 1960.87 5370.4 2002.68C5414.53 2044.49 5449.37 2095.58 5472.59 2153.65C5498.14 2211.71 5509.75 2272.1 5509.75 2339.45V2341.78C5509.75 2406.81 5498.14 2469.52 5472.59 2527.58C5447.04 2585.65 5412.21 2634.42 5368.08 2678.55C5323.95 2722.68 5270.53 2755.2 5212.46 2780.75C5152.07 2806.29 5087.04 2817.91 5015.04 2817.91ZM5019.69 2594.94C5056.85 2594.94 5089.36 2587.97 5119.56 2576.36C5147.43 2562.42 5172.98 2546.16 5193.88 2522.94C5214.78 2499.71 5231.04 2474.16 5240.33 2443.97C5251.95 2413.78 5256.59 2381.26 5256.59 2348.75V2346.42C5256.59 2311.58 5251.95 2281.39 5240.33 2251.2C5228.72 2221 5212.46 2195.46 5191.56 2172.23C5170.66 2149 5145.11 2130.42 5114.91 2116.49C5084.72 2102.55 5052.2 2095.58 5017.36 2095.58C4980.2 2095.58 4947.69 2102.55 4917.49 2114.16C4889.62 2128.1 4864.07 2144.36 4843.17 2167.58C4822.27 2190.81 4806.01 2216.36 4796.72 2246.55C4785.1 2276.75 4780.46 2309.26 4780.46 2341.78V2344.1C4780.46 2378.94 4785.1 2409.13 4796.72 2439.33C4808.33 2469.52 4824.59 2495.07 4845.49 2518.29C4866.39 2541.52 4891.94 2560.1 4922.14 2574.04C4950.01 2587.97 4982.52 2594.94 5019.69 2594.94Z" fill="#4865AA"/>
<path d="M5595.69 1905.18H5855.82V2035.25C5869.76 2016.67 5886.01 1998.09 5904.6 1979.5C5923.18 1960.92 5941.76 1946.99 5962.66 1933.05C5983.56 1919.12 6009.11 1909.83 6034.66 1900.54C6062.53 1893.57 6090.4 1888.92 6125.24 1888.92C6185.63 1888.92 6236.73 1900.54 6280.86 1926.09C6324.99 1951.63 6357.5 1986.47 6383.05 2032.92C6422.53 1984.15 6466.66 1949.31 6515.44 1923.76C6564.21 1900.54 6619.96 1886.6 6682.67 1886.6C6780.21 1886.6 6854.54 1914.47 6910.28 1972.54C6963.7 2028.28 6991.57 2111.89 6991.57 2223.38V2817.96H6731.44V2309.31C6731.44 2248.92 6717.5 2202.47 6691.96 2169.96C6666.41 2139.76 6629.25 2123.5 6580.47 2123.5C6531.7 2123.5 6492.21 2139.76 6464.34 2169.96C6436.47 2200.15 6422.54 2246.6 6422.54 2309.31V2817.96H6162.4V2309.31C6162.4 2248.92 6148.47 2202.47 6122.92 2169.96C6097.37 2139.76 6060.21 2123.5 6011.43 2123.5C5962.66 2123.5 5923.18 2139.76 5895.3 2169.96C5867.43 2200.15 5853.5 2246.6 5853.5 2309.31V2817.96H5593.37V1905.18H5595.69Z" fill="#4865AA"/>
<path d="M8008.86 2125.83C7997.24 2102.6 7985.63 2081.7 7969.37 2060.79C7932.21 2009.7 7888.08 1970.21 7836.99 1937.7C7785.89 1905.18 7727.82 1884.28 7662.79 1874.99C7597.76 1863.38 7532.72 1865.7 7463.05 1881.96C7393.37 1898.21 7330.66 1923.76 7279.56 1960.92C7226.14 1998.09 7182.01 2042.21 7149.5 2095.63C7114.66 2146.73 7093.75 2204.79 7082.14 2265.18C7070.53 2325.57 7072.85 2390.6 7086.79 2453.31V2455.63C7100.72 2520.67 7126.27 2576.41 7163.43 2627.5C7200.59 2678.6 7244.72 2718.09 7295.82 2750.6C7346.92 2783.12 7404.98 2804.02 7470.01 2813.31C7535.05 2824.92 7600.08 2822.6 7669.76 2806.34C7739.44 2790.09 7802.15 2764.54 7853.24 2727.38C7906.66 2690.21 7950.79 2646.09 7983.31 2592.67C7994.92 2574.09 8004.21 2555.5 8011.18 2536.92L7795.18 2430.09C7790.53 2446.34 7783.57 2462.6 7776.6 2476.54C7762.66 2502.09 7741.76 2525.31 7716.21 2546.21C7690.66 2564.79 7660.47 2578.73 7623.31 2588.02C7588.47 2594.99 7553.63 2597.31 7523.43 2590.34C7493.24 2583.38 7463.05 2571.76 7437.5 2553.18C7411.95 2534.6 7388.72 2513.7 7372.47 2485.83C7372.47 2483.5 7370.14 2483.5 7370.14 2481.18L7806.79 2383.63L8062.28 2325.57C8062.28 2295.38 8057.63 2265.18 8050.66 2234.99V2232.67C8039.05 2193.18 8027.44 2158.34 8008.86 2125.83ZM7332.98 2276.79C7337.63 2251.25 7344.59 2228.02 7358.53 2207.12C7372.47 2181.57 7393.37 2158.34 7418.92 2137.44C7444.47 2118.86 7474.66 2104.92 7511.82 2095.63C7546.66 2088.67 7579.18 2086.34 7611.69 2093.31C7644.21 2100.28 7672.08 2111.89 7697.63 2130.47C7718.53 2144.41 7734.79 2160.67 7748.73 2181.57L7332.98 2276.79Z" fill="#4865AA"/>
<path d="M4151 409.406H4427.39V639.342H4151V409.406ZM4157.97 739.213H4420.42V1651.99H4157.97V739.213Z" fill="#4865AA"/>
<path d="M4562.14 1470.76L5033.62 950.497H4576.07V741.465H5354.14V922.626L4880.33 1442.88H5354.14V1651.92H4559.81V1470.76H4562.14Z" fill="#4865AA"/>
<path d="M5454.01 1470.76L5925.5 950.497H5467.95V741.465H6246.02V922.626L5772.21 1442.88H6246.02V1651.92H5454.01V1470.76Z" fill="#4865AA"/>
<path d="M4009.35 987.66C3983.81 929.596 3948.97 880.822 3907.16 836.692C3863.03 794.886 3811.93 760.047 3751.55 736.822C3691.16 713.596 3626.13 699.66 3556.45 699.66C3484.45 699.66 3419.41 711.273 3359.03 736.822C3347.41 741.467 3335.8 748.434 3324.19 755.402V439.531H3061.73V1178.11V1180.43V1631.02H3324.19V1596.18C3335.8 1600.82 3345.09 1607.79 3359.03 1614.76C3419.41 1637.98 3484.45 1651.92 3554.13 1651.92C3626.13 1651.92 3691.16 1640.31 3751.55 1614.76C3811.93 1589.21 3863.03 1556.69 3907.16 1512.56C3951.29 1468.43 3986.13 1419.66 4011.68 1361.6C4037.23 1303.53 4048.84 1243.14 4048.84 1175.79V1173.47C4046.52 1108.43 4034.9 1045.72 4009.35 987.66ZM3791.03 1180.43C3791.03 1215.27 3786.39 1245.47 3774.77 1275.66C3763.16 1305.85 3749.22 1331.4 3728.32 1354.63C3707.42 1377.85 3684.19 1394.11 3654 1408.05C3626.13 1421.98 3591.29 1426.63 3554.13 1426.63C3516.96 1426.63 3484.45 1419.66 3456.58 1405.72C3428.7 1391.79 3403.16 1373.21 3379.93 1349.98C3359.03 1326.76 3342.77 1298.89 3331.16 1271.02C3326.51 1259.4 3324.19 1245.47 3321.87 1233.85V1110.76C3324.19 1099.14 3326.51 1087.53 3331.16 1075.92C3342.77 1045.72 3356.7 1020.18 3377.61 996.951C3398.51 973.725 3421.74 957.467 3451.93 943.531C3479.8 929.596 3514.64 924.951 3551.8 924.951C3586.64 924.951 3619.16 931.918 3649.35 945.854C3679.55 959.789 3705.09 978.37 3726 1001.6C3746.9 1024.82 3763.16 1052.69 3774.77 1080.56C3786.39 1108.43 3791.03 1143.27 3791.03 1175.79V1180.43Z" fill="#4865AA"/>
<path d="M6345.86 1078.24H6870.76V1326.76H6345.86V1078.24Z" fill="#4865AA"/>
</svg>
