<svg id="Capa_1" data-name="Capa 1" xmlns="http://www.w3.org/2000/svg" viewBox="0 0 1071.06 207.32"><defs><style>.cls-1{fill:#104c72;}.cls-2,.cls-4{fill:#3a74b4;}.cls-3{fill:#69c;}.cls-3,.cls-4{fill-rule:evenodd;}</style></defs><path class="cls-1" d="M52.77,189.64h-33V19.06H50.48l94,117.07V19.06h33V189.64H146.3L52.77,73.83Z"/><path class="cls-1" d="M220.47,189.64V19.06H342.31V47.73H254.87V87.87h76V118h-76v43h88.87v28.67Z"/><path class="cls-1" d="M353.38,189.64l64.05-87.43L356.89,19.06h40.57l40.7,58,40.7-58h40.69L459,102.21l64.06,87.43h-40.7l-44.21-62.56-44.09,62.56Z"/><path class="cls-2" d="M551.07,165.09c-15.24-15-24.87-36.93-24.87-60.7,0-16,3.66-30.35,11.1-43.39a80.43,80.43,0,0,1,30.59-30.71c12.92-7.43,27.3-11.09,43.27-11.09a85.31,85.31,0,0,1,42.41,11,87.8,87.8,0,0,1,31.69,30.35L659.3,79c-11.82-19.62-27.91-29.37-48.14-29.37-15,0-27.3,5.12-36.81,15.36S560,88.43,560,104.39s4.87,29.13,14.74,39.37,22.19,15.36,37.3,15.36q29.81,0,50.09-28.52l24.26,17.55a82.67,82.67,0,0,1-31.57,30.59A88.53,88.53,0,0,1,612,189.59C588.24,189.59,566.18,180.21,551.07,165.09Z"/><path class="cls-2" d="M914.23,189.64V19.06h78.5c15.45,0,28,4.27,37.93,12.94s14.83,20,14.83,33.66a39.26,39.26,0,0,1-9.68,25.88,30.59,30.59,0,0,1-13.18,9.42c18.46,7,28.63,22.73,28.63,41.32,0,13.94-4.89,25.37-14.69,34.17s-22.61,13.19-38.31,13.19Zm34.4-141.91V89.3h39.94c13.52,0,22.16-8.52,22.16-20.41,0-13-9.77-21.16-23.41-21.16Zm0,68.8V161H993.7c13.58,0,22.72-8.63,22.72-21.2,0-14.22-8.88-23.24-22.72-23.24Z"/><path class="cls-3" d="M789.52,19.44V57.77H761.73a127.19,127.19,0,0,1,8.7-17.07C775.39,32.82,789.52,19.44,789.52,19.44Z"/><path class="cls-4" d="M789.52,67.8V96.47H749.87s1.37-12.37,2.72-18.22a57.93,57.93,0,0,1,3.48-10.45Z"/><path class="cls-3" d="M789.52,148.07v41a2.35,2.35,0,0,0-.2-.22C787.57,187.07,775,174.3,770.4,167c-4.95-7.9-11.31-18.91-11.31-18.91Z"/><path class="cls-4" d="M789.52,107.93V136.6H756.08a58.64,58.64,0,0,1-3.48-10.45c-1.34-5.86-2.72-18.22-2.72-18.22Z"/><path class="cls-3" d="M828.77,57.77H801V19.44s14.13,13.38,19.09,21.26A126.47,126.47,0,0,1,828.77,57.77Z"/><path class="cls-4" d="M840.64,96.47H801V67.8h33.45a57,57,0,0,1,3.48,10.45C839.27,84.1,840.64,96.47,840.64,96.47Z"/><path class="cls-3" d="M831.41,148.07s-6.35,11-11.3,18.91c-4.59,7.3-17.11,20-18.9,21.84l-.22.23v-41Z"/><path class="cls-4" d="M840.62,107.93s-1.37,12.36-2.71,18.22a58.17,58.17,0,0,1-3.49,10.45H801V107.93Z"/><path class="cls-4" d="M738.11,122A114,114,0,0,1,737,107.93H705.62s.48,6,1.88,13.84a81.91,81.91,0,0,0,4.32,14.83h29.45A82.89,82.89,0,0,1,738.11,122Z"/><path class="cls-4" d="M717.1,67.8h-3.45a57.5,57.5,0,0,0-5.79,14.82,113.11,113.11,0,0,0-2.76,13.85h31.39V95.36s.66-6.24,2.06-13.25a140.27,140.27,0,0,1,3.81-14.31Z"/><path class="cls-3" d="M772.66,185.92c-2.34-2.47-14.46-15.43-18.86-22.11a95,95,0,0,1-8.09-15.74H719.18s7.38,13.11,19.31,21.6c18.65,13.27,34.07,16.57,34.55,16.66Z"/><path class="cls-3" d="M772.36,21.79a84.7,84.7,0,0,0-12.67,4.62l0,0C753.38,29,746,32.49,740.44,36.5c-11.88,8.57-20,21.27-20,21.27H747A93.91,93.91,0,0,1,755.05,42c4.87-7.39,17.37-20.24,17.37-20.24Z"/><path class="cls-3" d="M789.52,19.44V57.77H761.73a127.19,127.19,0,0,1,8.7-17.07C775.39,32.82,789.52,19.44,789.52,19.44Z"/><path class="cls-4" d="M756.07,67.8h33.45V96.47H749.87s1.37-12.37,2.72-18.22A57.93,57.93,0,0,1,756.07,67.8Z"/><path class="cls-4" d="M749.88,107.93h39.64V136.6H756.08a58.64,58.64,0,0,1-3.48-10.45C751.26,120.29,749.88,107.93,749.88,107.93Z"/><path class="cls-3" d="M759.09,148.07h30.43v40.68l-.19.09C787.6,187.1,775,174.31,770.4,167,765.45,159.08,759.09,148.07,759.09,148.07Z"/><path class="cls-3" d="M828.77,57.77H801V19.44s14.13,13.38,19.09,21.26A126.47,126.47,0,0,1,828.77,57.77Z"/><path class="cls-3" d="M820.11,167c-4.59,7.3-17.11,20-18.9,21.84l-.22,0V148.07h30.42S825.06,159.08,820.11,167Z"/><path class="cls-4" d="M834.42,136.6H801V107.93h39.63s-1.37,12.36-2.71,18.22A58.17,58.17,0,0,1,834.42,136.6Z"/><path class="cls-4" d="M840.64,96.47H801V67.8h33.45a57,57,0,0,1,3.48,10.45C839.27,84.1,840.64,96.47,840.64,96.47Z"/><path class="cls-3" d="M850.32,36.5c-6.26-4.52-14.82-8.37-21.51-11l-.12,0A84.15,84.15,0,0,0,820,22.3h0c-1-.34-1.61-.52-1.61-.52l.07.07c1,1,12.62,13.1,17.29,20.17a94.31,94.31,0,0,1,8.09,15.76h26.53S862.2,45.07,850.32,36.5Z"/><path class="cls-3" d="M868.27,148.07H845.05A94.12,94.12,0,0,1,837,163.81c-4.36,6.62-16.31,19.4-18.8,22.05l-.44.47c.48-.09,15.9-3.39,34.55-16.66,11.93-8.49,19.31-21.6,19.31-21.6Z"/><path class="cls-4" d="M882.65,82.62a57.73,57.73,0,0,0-5.78-14.82H848.16A141.66,141.66,0,0,1,852,82.11c1.41,7,2.07,13.25,2.07,13.25v1.11h31.38A110.64,110.64,0,0,0,882.65,82.62Z"/><path class="cls-4" d="M881,107.93H853.77A116.59,116.59,0,0,1,852.65,122a82.89,82.89,0,0,1-3.16,14.6h29.45a80.51,80.51,0,0,0,4.31-14.83c1.41-7.83,1.9-13.84,1.9-13.84Z"/></svg>